<svg width="192" height="192" viewBox="0 0 192 192" fill="none" xmlns="http://www.w3.org/2000/svg">
  <defs>
    <linearGradient id="bg" x1="0%" y1="0%" x2="100%" y2="100%">
      <stop offset="0%" style="stop-color:#6366f1;stop-opacity:1" />
      <stop offset="100%" style="stop-color:#8b5cf6;stop-opacity:1" />
    </linearGradient>
    <linearGradient id="heart" x1="0%" y1="0%" x2="100%" y2="100%">
      <stop offset="0%" style="stop-color:#ef4444;stop-opacity:1" />
      <stop offset="100%" style="stop-color:#dc2626;stop-opacity:1" />
    </linearGradient>
  </defs>
  
  <!-- Background -->
  <rect width="192" height="192" rx="32" fill="url(#bg)"/>
  
  <!-- Heart Symbol -->
  <path d="M96 144c-4-4-32-28-32-56 0-16 12-28 28-28 8 0 16 4 20 12 4-8 12-12 20-12 16 0 28 12 28 28 0 28-28 52-32 56l-16 16-16-16z" fill="url(#heart)"/>
  
  <!-- Medical Cross -->
  <rect x="88" y="72" width="16" height="48" fill="white" rx="2"/>
  <rect x="72" y="88" width="48" height="16" fill="white" rx="2"/>
  
  <!-- Persian Text "دیا" -->
  <text x="96" y="172" font-family="Arial, sans-serif" font-size="24" font-weight="bold" text-anchor="middle" fill="white">دیا</text>
</svg>